# xmcd CD database file
#
# Track frame offsets:
#	150
#	23433
#	52873
#	75531
#	103028
#	130111
#	155524
#	181005
#	198083
#	224250
#
# Disc length: 3268 seconds
#
# Revision: 2
# Processed by: cddbd v1.5.2PL0 Copyright (c) Steve Scherf et al.
# Submitted via: CDex 1.70beta3
#
DISCID=6f0cc20a
DTITLE=篠原美也子 - バード・アローン
DYEAR=2010
DGENRE=JPop
TTITLE0=Last Quarter
TTITLE1=Wing with Wind
TTITLE2=遠くから
TTITLE3=桜駅
TTITLE4=プラネタリウム
TTITLE5=compass rose
TTITLE6=HELPLESS
TTITLE7=treasure
TTITLE8=Fly
TTITLE9=いずれ散りゆく花ならば
EXTD=YEAR: 2010
EXTT0=
EXTT1=
EXTT2=
EXTT3=
EXTT4=
EXTT5=
EXTT6=
EXTT7=
EXTT8=
EXTT9=
PLAYORDER=
